<?xml version="1.0" encoding="utf-8"?>
<!-- Generator: Adobe Illustrator 18.0.0, SVG Export Plug-In . SVG Version: 6.00 Build 0)  -->
<!DOCTYPE svg PUBLIC "-//W3C//DTD SVG 1.1//EN" "http://www.w3.org/Graphics/SVG/1.1/DTD/svg11.dtd">
<svg version="1.1" id="Layer_1" xmlns="http://www.w3.org/2000/svg" xmlns:xlink="http://www.w3.org/1999/xlink" x="0px" y="0px"
	 viewBox="56.7 0 141.7 141.7" enable-background="new 56.7 0 141.7 141.7" xml:space="preserve">
<g>
	<path fill="#EDEDED" d="M56.7,141.7l9.8-35.4c-6.4-11-9.8-23.2-9.8-35.9C56.7,31.8,88.5,0,127.3,0s71.1,31.8,71.1,70.4
		s-32.3,71.4-71.1,71.4c-12.2,0-23.9-3.9-34.5-9.8L56.7,141.7z"/>
	<path fill="#55CD6C" d="M94.8,119.2l2.2,1.2c9,5.6,19.5,9,30.5,9c32,0,58.6-26.6,58.6-59.1s-26.6-58.2-58.9-58.2
		S68.9,38.1,68.9,70.4c0,11.2,3.2,22.2,9,31.5l1.5,2.2l-5.6,20.5L94.8,119.2z"/>
	<path fill="#FEFEFE" d="M108.5,37.6l-4.6-0.2c-1.5,0-2.9,0.5-3.9,1.5c-2.2,2-5.9,5.6-6.8,10.5c-1.7,7.3,1,16.1,7.3,24.9
		c6.4,8.8,18.6,23,40.1,29.1c6.8,2,12.2,0.7,16.6-2c3.4-2.2,5.6-5.6,6.4-9.3l0.7-3.4c0.2-1-0.2-2.2-1.2-2.7l-15.4-7.1
		c-1-0.5-2.2-0.2-2.9,0.7l-6.1,7.8c-0.5,0.5-1.2,0.7-2,0.5c-4.2-1.5-18.1-7.3-25.7-22c-0.2-0.7-0.2-1.5,0.2-2l5.9-6.6
		c0.5-0.7,0.7-1.7,0.5-2.4l-7.1-15.9C110.2,38.4,109.5,37.6,108.5,37.6"/>
</g>
</svg>
